# xmcd
#
# Track frame offsets:
#	150
#	21300
#	37200
#	57762
#	73175
#	90970
#	107230
#	123332
#	137212
#	152745
#	168292
#	193212
#
# Disc length: 2812 seconds
#
# Revision: 1
# Processed by: cddbd v1.5.1PL0 Copyright (c) Steve Scherf et al.
# Submitted via: CDex 1.50Beta5
#
DISCID=a90afa0c
DTITLE=小松亮太 - 「来たるべきもの」〜Lo Que Vendra
DYEAR=1999
DGENRE=
TTITLE0=来たるべきもの
TTITLE1=茶色と水色
TTITLE2=私の隠れ家
TTITLE3=天体
TTITLE4=パリの秋
TTITLE5=秋のテーマ
TTITLE6=タンゴロジー
TTITLE7=現実との3分間
TTITLE8=タコネアンド
TTITLE9=シルエット
TTITLE10=スム
TTITLE11=赤と黒
EXTD=
EXTT0=
EXTT1=
EXTT2=
EXTT3=
EXTT4=
EXTT5=
EXTT6=
EXTT7=
EXTT8=
EXTT9=
EXTT10=
EXTT11=
PLAYORDER=
